<svg class="icon" style="width: 1em;height: 1em;vertical-align: middle;fill: currentColor;overflow: hidden;" viewBox="0 0 1024 1024" version="1.1" xmlns="http://www.w3.org/2000/svg"><path d="M941.709938 0H82.290062A82.290062 82.290062 0 0 0 0 82.290062v859.419876A82.290062 82.290062 0 0 0 82.290062 1022.53923h859.419876A82.290062 82.290062 0 0 0 1022.53923 941.709938V82.290062A82.290062 82.290062 0 0 0 941.709938 0zM188.439372 553.631954a40.901569 40.901569 0 0 1-29.215406-70.116975L292.154066 351.558726 159.223966 218.628626a40.901569 40.901569 0 0 1 58.430813-57.94389l160.197813 162.145507a40.901569 40.901569 0 0 1 0 57.943889l-160.197813 160.684736a40.901569 40.901569 0 0 1-29.215407 12.173086z m443.587257 0H405.120304a40.901569 40.901569 0 0 1 0-82.290061H633.000476a40.901569 40.901569 0 0 1 0 82.290061z" fill="#5E5C5C" /></svg>